<svg xmlns="http://www.w3.org/2000/svg" viewBox="0 0 1600 900" preserveAspectRatio="xMidYMid slice">
<defs><linearGradient id="g" x1="0" y1="0" x2="1" y2="1"><stop offset="0" stop-color="#831843"/><stop offset="1" stop-color="#ec4899"/></linearGradient>
<radialGradient id="r" cx=".75" cy=".3" r=".6"><stop offset="0" stop-color="#ffd166" stop-opacity=".55"/><stop offset="1" stop-color="#ffd166" stop-opacity="0"/></radialGradient></defs>
<rect width="1600" height="900" fill="url(#g)"/><rect width="1600" height="900" fill="url(#r)"/>
<g fill="#fff" opacity=".07"><circle cx="200" cy="760" r="260"/><circle cx="1420" cy="140" r="200"/></g>
<path d="M0 720 Q400 640 800 700 T1600 680 V900 H0z" fill="#000" opacity=".18"/>
<g transform="translate(1100 470) scale(1.4)"><circle r="70" fill="#ffd166"/><path d="M-70 0 Q0 -40 70 0 M-70 0 Q0 40 70 0 M0 -70 Q-40 0 0 70 M0 -70 Q40 0 0 70" stroke="#0003" stroke-width="6" fill="none"/><rect x="-110" y="-170" width="10" height="260" fill="#fff"/><ellipse cx="-105" cy="-170" rx="36" ry="10" fill="none" stroke="#fff" stroke-width="7"/></g>
<text x="1540" y="70" text-anchor="end" font-family="Arial,Helvetica,sans-serif" font-size="26" font-weight="700" fill="#fff" opacity=".55" letter-spacing="6">PHOTO PLACEHOLDER · NETBALL · replace with real image</text>
</svg>