<svg xmlns="http://www.w3.org/2000/svg" viewBox="0 0 1600 900" preserveAspectRatio="xMidYMid slice">
<defs><linearGradient id="g" x1="0" y1="0" x2="1" y2="1"><stop offset="0" stop-color="#4a2c0a"/><stop offset="1" stop-color="#d97706"/></linearGradient>
<radialGradient id="r" cx=".75" cy=".3" r=".6"><stop offset="0" stop-color="#fde68a" stop-opacity=".55"/><stop offset="1" stop-color="#fde68a" stop-opacity="0"/></radialGradient></defs>
<rect width="1600" height="900" fill="url(#g)"/><rect width="1600" height="900" fill="url(#r)"/>
<g fill="#fff" opacity=".07"><circle cx="200" cy="760" r="260"/><circle cx="1420" cy="140" r="200"/></g>
<path d="M0 720 Q400 640 800 700 T1600 680 V900 H0z" fill="#000" opacity=".18"/>
<g transform="translate(1100 470) scale(1.4)"><path d="M-260 0 C -150 -30, -60 30, 0 0 S 160 -30, 260 0" stroke="#fde68a" stroke-width="22" fill="none" stroke-linecap="round"/><path d="M-260 0 C -150 -30, -60 30, 0 0 S 160 -30, 260 0" stroke="#0003" stroke-width="22" stroke-dasharray="6 14" fill="none"/><rect x="-8" y="-40" width="16" height="80" fill="#fff"/></g>
<text x="1540" y="70" text-anchor="end" font-family="Arial,Helvetica,sans-serif" font-size="26" font-weight="700" fill="#fff" opacity=".55" letter-spacing="6">PHOTO PLACEHOLDER · TUG OF WAR · replace with real image</text>
</svg>